<svg xmlns="http://www.w3.org/2000/svg" viewBox="0 0 39.41 41.81"><defs><style>.cls-1{fill:#121a26;}</style></defs><title>Asset 1</title><g id="Layer_2" data-name="Layer 2"><g id="Artboard_2" data-name="Artboard 2"><path id="path-1" class="cls-1" d="M0,29.93A.91.91,0,0,1,.91,29H3.27a.91.91,0,0,1,.65.27l1.29,1.29a.91.91,0,0,0,.65.27H8.75a.91.91,0,0,0,.65-.27l1.29-1.29a.91.91,0,0,1,.65-.27H38.49a.91.91,0,0,1,.91.91v9.14a.91.91,0,0,1-.91.91H11.33a.91.91,0,0,0-.65.27L9.39,41.54a.91.91,0,0,1-.65.27H5.85a.91.91,0,0,1-.65-.27L3.92,40.25A.91.91,0,0,0,3.27,40H.91A.91.91,0,0,1,0,39.07Z"/><path id="path-1-2" data-name="path-1" class="cls-1" d="M0,15.5a.91.91,0,0,1,.91-.91H3.27a.91.91,0,0,1,.65.27l1.29,1.29a.91.91,0,0,0,.65.27H8.75a.91.91,0,0,0,.65-.27l1.29-1.29a.91.91,0,0,1,.65-.27H38.49a.91.91,0,0,1,.91.91v9.14a.91.91,0,0,1-.91.91H11.33a.91.91,0,0,0-.65.27L9.39,27.11a.91.91,0,0,1-.65.27H5.85a.91.91,0,0,1-.65-.27L3.92,25.82a.91.91,0,0,0-.65-.27H.91A.91.91,0,0,1,0,24.64Z"/><path id="path-1-3" data-name="path-1" class="cls-1" d="M0,.91A.91.91,0,0,1,.91,0H3.27a.91.91,0,0,1,.65.27L5.21,1.56a.91.91,0,0,0,.65.27H8.75a.91.91,0,0,0,.65-.27L10.68.27A.91.91,0,0,1,11.33,0H38.49a.91.91,0,0,1,.91.91v9.14a.91.91,0,0,1-.91.91H11.33a.91.91,0,0,0-.65.27L9.39,12.53a.91.91,0,0,1-.65.27H5.85a.91.91,0,0,1-.65-.27L3.92,11.23A.91.91,0,0,0,3.27,11H.91A.91.91,0,0,1,0,10.05Z"/></g></g></svg>